<?xml version="1.0" encoding="UTF-8"?>
<svg id="Capa_2" data-name="Capa 2" xmlns="http://www.w3.org/2000/svg" viewBox="0 0 500 500">
  <defs>
    <style>
      .cls-1 {
        letter-spacing: -.02em;
      }

      .cls-2 {
        letter-spacing: -.03em;
      }

      .cls-3, .cls-4, .cls-5 {
        fill: #fff;
      }

      .cls-6 {
        letter-spacing: -.02em;
      }

      .cls-7 {
        stroke-width: 2px;
      }

      .cls-7, .cls-8 {
        fill: none;
        stroke: #fff;
        stroke-miterlimit: 10;
      }

      .cls-4 {
        font-size: 27.35px;
      }

      .cls-4, .cls-5 {
        font-family: Gilroy-Regular, Gilroy-Regular;
      }

      .cls-9 {
        letter-spacing: -.05em;
      }

      .cls-10 {
        letter-spacing: -.09em;
      }

      .cls-11 {
        letter-spacing: .02em;
      }

      .cls-5 {
        font-size: 53.29px;
      }
    </style>
  </defs>
  <g id="Capa_1-2" data-name="Capa 1">
    <g>
      <rect width="500" height="500"/>
      <g>
        <text class="cls-5" transform="translate(70.1 348.04)"><tspan x="0" y="0">PI</tspan><tspan class="cls-11" x="43.7" y="0">L</tspan><tspan x="70.88" y="0">AR AR</tspan><tspan class="cls-10" x="216.36" y="0">AY</tspan><tspan x="272.05" y="0">A </tspan><tspan class="cls-2" x="318.95" y="0">J</tspan><tspan x="346.82" y="0">. </tspan></text>
        <g>
          <text class="cls-4" transform="translate(136.15 402.53)"><tspan x="0" y="0">FON</tspan><tspan class="cls-6" x="54.67" y="0">O</tspan><tspan class="cls-1" x="75.97" y="0">A</tspan><tspan x="92.65" y="0">UDIÓ</tspan><tspan class="cls-9" x="158.67" y="0">L</tspan><tspan x="170.7" y="0">O</tspan><tspan class="cls-6" x="192.69" y="0">G</tspan><tspan x="213.58" y="0">A</tspan></text>
          <line class="cls-8" x1="381.6" y1="393.08" x2="457.18" y2="393.08"/>
          <line class="cls-8" x1="42.82" y1="393.08" x2="118.4" y2="393.08"/>
        </g>
        <g>
          <path class="cls-7" d="M339.54,182.86c0,12.94-6.98,24.26-17.4,30.36-3.53-14.87-16.52-26.07-32.27-26.93,.11-1.14,.15-2.27,.15-3.44,0-.93-.03-1.84-.1-2.75,15.93-.9,29.02-12.37,32.35-27.52,10.34,6.11,17.26,17.39,17.26,30.26Z"/>
          <path class="cls-7" d="M323.11,144.98c0,2.61-.28,5.16-.83,7.62-5.25-3.11-11.37-4.91-17.92-4.91-9.13,0-17.45,3.48-23.7,9.19-1.42-1.71-2.96-3.3-4.64-4.74,5.44-6.18,8.74-14.29,8.74-23.18,0-6.65-1.85-12.87-5.05-18.18,2.64-.65,5.39-.98,8.22-.98,19.44,0,35.19,15.75,35.19,35.19Z"/>
          <path class="cls-7" d="M279.7,110.78c-14.63,3.48-25.71,16.11-26.86,31.51-1.16-.11-2.36-.17-3.56-.17-1.01,0-2.02,.04-3.02,.13-1.18-15.36-12.24-27.95-26.84-31.44,6.16-10.21,17.35-17.04,30.14-17.04s23.97,6.82,30.14,17.01Z"/>
          <path class="cls-7" d="M222.88,151.86c-1.63,1.37-3.13,2.87-4.5,4.49-6.17-5.4-14.25-8.65-23.08-8.65-6.73,0-13.03,1.89-18.39,5.19-.59-2.54-.9-5.17-.9-7.88,0-19.42,15.75-35.17,35.19-35.17,2.83,0,5.6,.34,8.23,.98-3.2,5.3-5.03,11.5-5.03,18.15,0,8.75,3.2,16.74,8.48,22.9Z"/>
          <path class="cls-7" d="M322.14,213.23c-5.22,3.07-11.29,4.82-17.78,4.82-9.13,0-17.45-3.48-23.7-9.19-1.56,1.87-3.27,3.59-5.12,5.15,5.72,6.25,9.21,14.59,9.21,23.73,0,6.55-1.8,12.68-4.91,17.92-14.91-3.49-26.16-16.46-27.05-32.23-1.15,.11-2.33,.17-3.51,.17-1,0-1.99-.04-2.96-.13-.9,15.74-12.13,28.69-27.01,32.2-3.13-5.25-4.92-11.39-4.92-17.94,0-9.02,3.39-17.22,8.96-23.45-1.8-1.49-3.46-3.13-4.96-4.89-6.17,5.39-14.25,8.65-23.1,8.65-6.68,0-12.92-1.87-18.25-5.09,3.59-14.56,16.25-25.54,31.65-26.6-.1-1.15-.15-2.31-.15-3.49,0-.94,.03-1.87,.11-2.78-15.59-1.11-28.37-12.37-31.75-27.21,5.36-3.3,11.65-5.19,18.39-5.19,8.84,0,16.91,3.25,23.08,8.65,1.37-1.61,2.87-3.11,4.5-4.49-5.29-6.16-8.48-14.15-8.48-22.9,0-6.65,1.84-12.85,5.03-18.15,14.6,3.49,25.66,16.09,26.84,31.44,1-.08,2.01-.13,3.02-.13,1.21,0,2.4,.06,3.56,.17,1.15-15.4,12.23-28.03,26.86-31.51,3.2,5.3,5.05,11.53,5.05,18.18,0,8.89-3.3,17-8.74,23.18,1.68,1.44,3.23,3.03,4.64,4.74,6.25-5.71,14.57-9.19,23.7-9.19,6.55,0,12.68,1.8,17.92,4.91-3.34,15.15-16.42,26.62-32.35,27.52,.07,.91,.1,1.82,.1,2.75,0,1.16-.04,2.3-.15,3.44,15.75,.86,28.74,12.06,32.27,26.93Z"/>
          <path class="cls-7" d="M323.11,221.42c0,19.44-15.75,35.19-35.19,35.19-2.78,0-5.48-.32-8.08-.94,3.11-5.25,4.91-11.37,4.91-17.92,0-9.14-3.49-17.47-9.21-23.73,1.85-1.56,3.56-3.28,5.12-5.15,6.25,5.71,14.57,9.19,23.7,9.19,6.49,0,12.57-1.75,17.78-4.82,.63,2.62,.97,5.37,.97,8.19Z"/>
          <path class="cls-7" d="M208.7,186.36c-15.4,1.07-28.06,12.05-31.65,26.6-10.15-6.17-16.94-17.33-16.94-30.1s6.73-23.81,16.8-29.98c3.38,14.84,16.16,26.1,31.75,27.21-.08,.91-.11,1.84-.11,2.78,0,1.18,.06,2.34,.15,3.49Z"/>
          <path class="cls-7" d="M214.39,237.74c0,6.55,1.8,12.69,4.92,17.94-2.61,.63-5.33,.95-8.12,.95-19.44,0-35.19-15.75-35.19-35.19,0-2.93,.35-5.76,1.04-8.48,5.33,3.23,11.57,5.09,18.25,5.09,8.85,0,16.93-3.27,23.1-8.65,1.5,1.77,3.17,3.41,4.96,4.89-5.57,6.23-8.96,14.43-8.96,23.45Z"/>
          <path class="cls-7" d="M279.84,255.66c-6.13,10.34-17.39,17.26-30.28,17.26s-24.14-6.91-30.25-17.25c14.88-3.51,26.11-16.46,27.01-32.2,.97,.08,1.96,.13,2.96,.13,1.18,0,2.36-.06,3.51-.17,.9,15.76,12.14,28.74,27.05,32.23Z"/>
          <g>
            <g>
              <polygon class="cls-3" points="249.28 180.86 277.49 182.86 249.28 184.86 249.28 180.86 249.28 180.86"/>
              <polygon class="cls-3" points="249.28 184.86 221.08 182.86 249.28 180.86 249.28 184.86 249.28 184.86"/>
            </g>
            <g>
              <polygon class="cls-3" points="251.28 182.92 249.28 211.12 247.28 182.92 251.28 182.92 251.28 182.92"/>
              <polygon class="cls-3" points="247.28 182.92 249.28 154.72 251.28 182.92 247.28 182.92 247.28 182.92"/>
            </g>
          </g>
          <g>
            <g>
              <polygon class="cls-3" points="250.37 181.77 263.73 197.25 248.25 183.89 250.37 181.77 250.37 181.77"/>
              <polygon class="cls-3" points="248.25 183.89 234.9 168.42 250.37 181.77 248.25 183.89 248.25 183.89"/>
            </g>
            <g>
              <polygon class="cls-3" points="250.35 183.92 234.87 197.28 248.22 181.8 250.35 183.92 250.35 183.92"/>
              <polygon class="cls-3" points="248.22 181.8 263.7 168.45 250.35 183.92 248.22 181.8 248.22 181.8"/>
            </g>
          </g>
          <g>
            <g>
              <path class="cls-3" d="M289.97,181c3.93,.21,7.7,.97,11.26,2.22-3.56,1.26-7.35,2.02-11.29,2.22,.06-.86,.08-1.71,.08-2.57,0-.62-.03-1.25-.06-1.87Z"/>
              <path class="cls-3" d="M285.74,146.93c-1.61,3.23-3.65,6.21-6.03,8.86-.86-.98-1.77-1.91-2.72-2.79,2.62-2.38,5.57-4.45,8.75-6.07Z"/>
              <path class="cls-3" d="M279.39,210.31c2.29,2.48,4.26,5.26,5.88,8.26-3-1.6-5.78-3.58-8.27-5.85,.84-.76,1.64-1.57,2.4-2.41Z"/>
              <path class="cls-3" d="M249.29,223.6c.79,0,1.57-.03,2.36-.07-.2,3.77-.91,7.42-2.09,10.85-1.16-3.42-1.88-7.05-2.08-10.83,.6,.03,1.21,.04,1.81,.04Z"/>
              <path class="cls-3" d="M251.59,142.19c-.76-.04-1.53-.07-2.3-.07-.59,0-1.18,.01-1.75,.04,.24-3.52,.93-6.89,2.03-10.1,1.09,3.21,1.8,6.61,2.02,10.13Z"/>
              <path class="cls-3" d="M219.49,210.62c.88,.97,1.82,1.88,2.8,2.73-2.62,2.3-5.53,4.25-8.68,5.79,1.58-3.1,3.56-5.96,5.88-8.53Z"/>
              <path class="cls-3" d="M222.28,152.37c-1.11,.97-2.15,2.01-3.13,3.09-2.4-2.73-4.43-5.79-6.02-9.1,3.32,1.58,6.4,3.62,9.14,6.02Z"/>
              <path class="cls-3" d="M208.59,181.04c-.03,.6-.04,1.21-.04,1.82,0,.84,.03,1.68,.08,2.52-3.74-.22-7.35-.97-10.74-2.17,3.38-1.19,6.97-1.94,10.7-2.17Z"/>
            </g>
            <g>
              <path class="cls-7" d="M279.39,210.31c2.29,2.48,4.26,5.26,5.88,8.26,3.04,5.68,4.77,12.17,4.77,19.07,0,8.91-2.87,17.14-7.77,23.81-7.35,10.08-19.26,16.63-32.69,16.63s-25.33-6.55-32.68-16.63c-4.89-6.68-7.77-14.91-7.77-23.81,0-6.68,1.61-12.96,4.49-18.5,1.58-3.1,3.56-5.96,5.88-8.53"/>
              <path class="cls-7" d="M249.56,234.39c-4.81,14.25-17.36,24.94-32.66,27.07-1.84,.27-3.73,.39-5.64,.39-22.34,0-40.45-18.11-40.45-40.45,0-2.15,.17-4.24,.49-6.28,2.31-14.87,12.73-27.07,26.59-31.91,3.38-1.19,6.97-1.94,10.7-2.17"/>
              <path class="cls-7" d="M249.56,234.39c-1.16-3.42-1.88-7.05-2.08-10.83"/>
              <path class="cls-7" d="M289.97,181c3.93,.21,7.7,.97,11.26,2.22,14.04,4.92,24.54,17.35,26.67,32.48,.27,1.87,.41,3.77,.41,5.71,0,22.34-18.11,40.45-40.45,40.45-1.91,0-3.79-.13-5.61-.39-15.3-2.12-27.88-12.8-32.7-27.07,1.18-3.44,1.89-7.08,2.09-10.85"/>
              <path class="cls-7" d="M276.99,212.72c-6.73,6.25-15.58,10.27-25.34,10.81-.79,.04-1.57,.07-2.36,.07-.6,0-1.21-.01-1.81-.04-9.65-.42-18.41-4.19-25.19-10.21"/>
              <path class="cls-7" d="M276.99,153c2.62-2.38,5.57-4.45,8.75-6.07,5.55-2.89,11.86-4.52,18.55-4.52,8.85,0,17.04,2.85,23.7,7.67,10.14,7.35,16.74,19.28,16.74,32.77s-6.63,25.5-16.83,32.83c-6.65,4.81-14.81,7.63-23.62,7.63-6.87,0-13.35-1.72-19.03-4.75-3-1.6-5.78-3.58-8.27-5.85,.84-.76,1.64-1.57,2.4-2.41,6.07-6.63,9.97-15.31,10.56-24.88"/>
              <path class="cls-7" d="M219.15,155.46c-6.21,6.82-10.13,15.75-10.56,25.58-.03,.6-.04,1.21-.04,1.82,0,.84,.03,1.68,.08,2.52,.59,9.73,4.6,18.54,10.85,25.23,.88,.97,1.82,1.88,2.8,2.73-2.62,2.3-5.53,4.25-8.68,5.79-5.4,2.68-11.47,4.18-17.89,4.18-9.17,0-17.63-3.06-24.42-8.2-9.75-7.39-16.03-19.09-16.03-32.26s6.25-24.79,15.95-32.17c6.79-5.19,15.3-8.27,24.5-8.27,6.24,0,12.14,1.42,17.42,3.94,3.32,1.58,6.4,3.62,9.14,6.02"/>
              <path class="cls-7" d="M249.57,132.05c4.81-14.26,17.36-24.96,32.68-27.08"/>
              <path class="cls-7" d="M247.54,142.16c.24-3.52,.93-6.89,2.03-10.1"/>
              <path class="cls-7" d="M282.26,104.97c1.84-.27,3.7-.39,5.61-.39,22.34,0,40.45,18.11,40.45,40.45,0,1.71-.11,3.41-.32,5.06-1.92,15.43-12.52,28.15-26.76,33.13-3.56,1.26-7.35,2.02-11.29,2.22,.06-.86,.08-1.71,.08-2.57,0-.62-.03-1.25-.06-1.87-.43-9.66-4.24-18.44-10.27-25.2"/>
              <path class="cls-7" d="M282.26,104.97c4.88,6.69,7.77,14.92,7.77,23.84,0,6.52-1.54,12.68-4.29,18.12-1.61,3.23-3.65,6.21-6.03,8.86-.86-.98-1.77-1.91-2.72-2.79-6.75-6.27-15.61-10.27-25.4-10.81-.76-.04-1.53-.07-2.3-.07-.59,0-1.18,.01-1.75,.04-9.68,.41-18.48,4.19-25.26,10.21-1.11,.97-2.15,2.01-3.13,3.09-2.4-2.73-4.43-5.79-6.02-9.1-2.58-5.3-4.01-11.26-4.01-17.54,0-8.92,2.89-17.15,7.77-23.84,7.36-10.07,19.26-16.62,32.68-16.62s25.33,6.55,32.68,16.62h.01Z"/>
              <path class="cls-7" d="M208.63,185.39c-3.74-.22-7.35-.97-10.74-2.17-14.05-4.91-24.57-17.38-26.67-32.52-.27-1.85-.41-3.74-.41-5.67,0-22.34,18.11-40.45,40.45-40.45,1.91,0,3.8,.13,5.64,.39,15.3,2.13,27.87,12.82,32.68,27.08h0c1.09,3.23,1.8,6.62,2.02,10.14"/>
            </g>
          </g>
          <circle class="cls-7" cx="249.28" cy="182.87" r="35.35"/>
        </g>
      </g>
    </g>
  </g>
</svg>